<svg width="44" height="44" viewBox="0 0 44 44" fill="none" xmlns="http://www.w3.org/2000/svg">
<path fill-rule="evenodd" clip-rule="evenodd" d="M22 9.5C19.6524 9.5 17.595 10.7442 16.4519 12.6115L16.2396 12.9584L15.8567 12.8211C15.2773 12.6134 14.6525 12.5 14 12.5C10.9624 12.5 8.5 14.9624 8.5 18C8.5 20.4524 10.1054 22.5311 12.3238 23.2401L12.6365 23.34L13.4525 31.5H30.5475L31.3635 23.34L31.6762 23.2401C33.8946 22.5311 35.5 20.4524 35.5 18C35.5 14.9624 33.0376 12.5 30 12.5C29.3475 12.5 28.7227 12.6134 28.1433 12.8211L27.7604 12.9584L27.5481 12.6115C26.405 10.7442 24.3476 9.5 22 9.5ZM15.8149 11.7569C17.1662 9.79079 19.4321 8.5 22 8.5C24.5679 8.5 26.8338 9.79079 28.1851 11.7569C28.7616 11.5896 29.3707 11.5 30 11.5C33.5899 11.5 36.5 14.4101 36.5 18C36.5 20.7829 34.7514 23.1562 32.2942 24.0834L31.4525 32.5H12.5475L11.7058 24.0834C9.24857 23.1562 7.5 20.7829 7.5 18C7.5 14.4101 10.4101 11.5 14 11.5C14.6293 11.5 15.2384 11.5896 15.8149 11.7569Z" fill="black"/>
<path fill-rule="evenodd" clip-rule="evenodd" d="M18.4933 23.9178C18.4479 23.6454 18.1903 23.4614 17.9179 23.5068C17.6455 23.5522 17.4615 23.8098 17.5069 24.0822L18.0069 27.0822C18.0523 27.3545 18.3099 27.5386 18.5823 27.4932C18.8547 27.4478 19.0387 27.1901 18.9933 26.9178L18.4933 23.9178ZM25.9933 27.0822C25.9479 27.3545 25.6903 27.5386 25.4179 27.4932C25.1455 27.4478 24.9615 27.1901 25.0069 26.9178L25.5069 23.9178C25.5523 23.6454 25.8099 23.4614 26.0823 23.5068C26.3547 23.5522 26.5387 23.8098 26.4933 24.0822L25.9933 27.0822Z" fill="black"/>
<path d="M12 32C12 31.4477 12.4477 31 13 31H31C31.5523 31 32 31.4477 32 32V34C32 34.5523 31.5523 35 31 35H13C12.4477 35 12 34.5523 12 34V32Z" fill="#F16C7C"/>
</svg>
