<svg width="44" height="44" viewBox="0 0 44 44" fill="none" xmlns="http://www.w3.org/2000/svg">
<g clip-path="url(#clip0_1395_9405)">
<path d="M32.4061 11.6873C32.5312 16.6875 29.2499 18.5207 27.5936 18.8123C27.5415 18.8852 27.5498 19.231 27.9998 20.031C28.4498 20.831 29.4373 20.9477 29.8748 20.906C30.7915 20.6873 32.7123 20.206 33.0623 20.031C33.4998 19.8123 33.7498 19.406 34.0623 18.6248C34.9873 18.4748 35.4894 17.6873 35.6248 17.3123L36.2811 14.8123C36.3644 14.5935 36.4811 14.0248 36.2811 13.4998C36.0811 12.9748 35.5936 12.5727 35.3748 12.4373C34.7498 12.2705 33.2809 11.887 32.4061 11.6873Z" fill="#F897A1"/>
<path d="M18.5312 27.4377C21.8125 25.0002 25.1562 21.5002 27.4062 18.6565L28.7499 20.6877C26.3124 23.1044 21.3124 28.0752 20.8124 28.6252C21.0624 29.0752 20.9166 29.8752 20.8124 30.219C20.7083 30.5627 20.4312 31.4877 20.1562 32.4377C19.8124 33.6252 19.2187 33.8127 18.5312 34.1565C18.4812 34.9065 17.7603 35.4273 17.4062 35.594C16.9478 35.7815 15.7124 36.2002 14.4374 36.3752C13.1624 36.5502 12.5312 35.594 12.3749 35.094L11.7187 32.4377C11.177 32.3127 9.80625 31.969 8.65625 31.594C16.5146 34.1565 18.7188 29.469 18.5312 27.4377Z" fill="#F897A1"/>
<path fill-rule="evenodd" clip-rule="evenodd" d="M8.94997 32.1907C7.6163 31.8334 6.82485 30.4626 7.1822 29.1289L7.82883 26.7156C8.18619 25.382 9.55703 24.5905 10.8907 24.9479L19.5809 27.2764C20.9146 27.6338 21.706 29.0046 21.3487 30.3383L20.702 32.7515C20.3447 34.0852 18.9738 34.8766 17.6402 34.5193L8.94997 32.1907ZM8.14813 29.3877C7.93372 30.1879 8.40859 31.0104 9.20879 31.2248L17.899 33.5534C18.6992 33.7678 19.5217 33.2929 19.7361 32.4927L20.3827 30.0794C20.5972 29.2792 20.1223 28.4567 19.3221 28.2423L10.6319 25.9138C9.83168 25.6994 9.00917 26.1743 8.79476 26.9745L8.14813 29.3877Z" fill="black"/>
<path fill-rule="evenodd" clip-rule="evenodd" d="M10.637 24.8936C10.7215 24.9072 10.8061 24.9252 10.8904 24.9478L16.2108 26.3734L15.7563 24.6772C15.5419 23.877 14.7194 23.4021 13.9192 23.6166L11.5059 24.2632C11.134 24.3628 10.832 24.594 10.637 24.8936ZM9.42667 25.3073C9.58102 24.3692 10.2672 23.5598 11.2471 23.2973L13.6604 22.6506C14.994 22.2933 16.3649 23.0847 16.7222 24.4184L17.625 27.7876L10.6316 25.9137C10.4181 25.8565 10.2043 25.8484 10.0011 25.8818L9.31353 25.9949L9.42667 25.3073ZM10.9049 31.6793L17.8987 33.5533C18.1122 33.6105 18.326 33.6186 18.5291 33.5852L19.2165 33.4723L19.1036 34.1596C18.9495 35.098 18.2632 35.9078 17.283 36.1705L14.8698 36.8171C13.5361 37.1744 12.1652 36.383 11.8079 35.0493L10.9049 31.6793ZM12.3191 33.0935L12.7738 34.7905C12.9882 35.5907 13.8107 36.0656 14.6109 35.8512L17.0242 35.2045C17.3964 35.1048 17.6986 34.8734 17.8935 34.5734C17.809 34.5599 17.7243 34.5418 17.6399 34.5192L12.3191 33.0935Z" fill="black"/>
<path fill-rule="evenodd" clip-rule="evenodd" d="M24.4168 16.724C23.0831 16.3666 22.2916 14.9958 22.649 13.6621L23.2956 11.2488C23.653 9.91517 25.0238 9.12372 26.3575 9.48107L35.0477 11.8096C36.3814 12.167 37.1728 13.5378 36.8155 14.8715L36.1688 17.2847C35.8115 18.6184 34.4406 19.4098 33.107 19.0525L24.4168 16.724ZM23.6149 13.9209C23.4005 14.7211 23.8754 15.5436 24.6756 15.758L33.3658 18.0866C34.166 18.301 34.9885 17.8261 35.2029 17.0259L35.8495 14.6126C36.0639 13.8124 35.5891 12.9899 34.7889 12.7755L26.0987 10.447C25.2985 10.2326 24.476 10.7075 24.2616 11.5077L23.6149 13.9209Z" fill="black"/>
<path fill-rule="evenodd" clip-rule="evenodd" d="M26.1038 9.42684C26.1883 9.4404 26.2729 9.45841 26.3572 9.48101L31.6776 10.9066L31.2231 9.21042C31.0087 8.41022 30.1862 7.93535 29.386 8.14976L26.9727 8.79639C26.6008 8.89604 26.2988 9.12716 26.1038 9.42684ZM24.8935 9.84046C25.0478 8.90245 25.734 8.09304 26.7139 7.83047L29.1272 7.18384C30.4608 6.82648 31.8317 7.61794 32.189 8.9516L33.0918 12.3208L26.0984 10.4469C25.8849 10.3897 25.6711 10.3816 25.4679 10.415L24.7803 10.5281L24.8935 9.84046ZM26.3717 16.2125L33.3655 18.0865C33.579 18.1437 33.7928 18.1518 33.9959 18.1184L34.6833 18.0055L34.5704 18.6928C34.4163 19.6312 33.73 20.441 32.7498 20.7037L30.3365 21.3503C29.0029 21.7077 27.632 20.9162 27.2747 19.5825L26.3717 16.2125ZM27.7859 17.6267L28.2406 19.3237C28.455 20.1239 29.2775 20.5988 30.0777 20.3844L32.491 19.7377C32.8632 19.638 33.1654 19.4066 33.3603 19.1066C33.2758 19.0931 33.1911 19.075 33.1067 19.0524L27.7859 17.6267Z" fill="black"/>
<path fill-rule="evenodd" clip-rule="evenodd" d="M14.4923 23.4407L23.4393 14.4937L23.765 15.0586C23.9572 15.3921 24.2757 15.651 24.6763 15.7583L32.2747 17.7943L31.4581 18.6109L27.7864 17.6271L28.2411 19.3241C28.3485 19.7251 28.6078 20.0438 28.9419 20.236L29.5075 20.5615L20.5601 29.5089L20.2346 28.9433C20.0424 28.6093 19.7237 28.3501 19.3228 28.2426L16.5101 27.489L15.7568 24.6776C15.6495 24.2771 15.3906 23.9586 15.0571 23.7663L14.4923 23.4407ZM26.671 17.3281L24.4175 16.7242C23.9712 16.6047 23.5854 16.3712 23.2832 16.064L16.0626 23.2846C16.3698 23.5868 16.6031 23.9726 16.7227 24.4188L17.3266 26.6725L19.5816 27.2767C20.0283 27.3964 20.4145 27.6302 20.7168 27.938L27.9365 20.7182C27.6287 20.4159 27.3949 20.0297 27.2752 19.5829L26.671 17.3281Z" fill="black"/>
</g>
<defs>
<clipPath id="clip0_1395_9405">
<rect width="44" height="44" fill="white"/>
</clipPath>
</defs>
</svg>
