<svg width="44" height="44" viewBox="0 0 44 44" fill="none" xmlns="http://www.w3.org/2000/svg">
<path fill-rule="evenodd" clip-rule="evenodd" d="M8.82559 21.4037C6.94455 21.9077 5.86622 23.879 6.37632 25.7827C6.68368 26.9298 7.49991 27.8071 8.51163 28.2154C7.83959 29.0748 7.57138 30.2427 7.87874 31.3898C8.38885 33.2936 10.3084 34.4616 12.1894 33.9576C13.4997 33.6065 14.422 32.5403 14.687 31.2851L23.1752 29.0107C24.0323 29.9653 25.3641 30.4274 26.6744 30.0763C28.5554 29.5723 29.6338 27.601 29.1237 25.6973C28.8163 24.5502 28.0001 23.6729 26.9884 23.2646C27.6604 22.4052 27.9286 21.2372 27.6213 20.0902C27.1111 18.1864 25.1916 17.0184 23.3106 17.5224C21.8571 17.9119 20.8818 19.1798 20.75 20.6124L12.5881 22.7994C11.7576 21.6246 10.2791 21.0142 8.82559 21.4037ZM7.34225 25.5239C6.96728 24.1245 7.76551 22.723 9.08441 22.3696C10.1978 22.0712 11.3609 22.6035 11.9244 23.6201C12.0357 23.8208 12.2694 23.92 12.4911 23.8606L21.3646 21.483C21.5864 21.4236 21.7392 21.2208 21.7352 20.9913C21.7149 19.8292 22.456 18.7867 23.5694 18.4883C24.8883 18.1349 26.2804 18.9496 26.6553 20.349C26.9463 21.4349 26.529 22.528 25.7089 23.1242C25.5415 23.2459 25.4663 23.4582 25.5199 23.6581C25.5735 23.858 25.7447 24.0042 25.9505 24.0259C26.9588 24.1321 27.8668 24.8702 28.1577 25.9561C28.5327 27.3555 27.7345 28.757 26.4156 29.1104C25.4124 29.3792 24.3703 28.9745 23.7602 28.1474C23.6381 27.9818 23.427 27.908 23.2284 27.9612L14.1162 30.4028C13.9175 30.456 13.7717 30.6255 13.7487 30.8299C13.6339 31.8513 12.9338 32.7229 11.9306 32.9917C10.6117 33.3451 9.21964 32.5304 8.84467 31.131C8.55371 30.0451 8.97102 28.952 9.79113 28.3558C9.95853 28.2341 10.0337 28.0218 9.98009 27.8219C9.92653 27.622 9.75534 27.4758 9.54953 27.4541C8.5412 27.3478 7.63321 26.6098 7.34225 25.5239ZM15.2042 27.252C15.6844 27.1233 15.9693 26.6298 15.8406 26.1497C15.712 25.6696 15.2185 25.3847 14.7384 25.5133C14.2582 25.6419 13.9733 26.1355 14.102 26.6156C14.2306 27.0957 14.7241 27.3806 15.2042 27.252ZM18.639 25.3999C18.7676 25.88 18.4827 26.3735 18.0026 26.5021C17.5225 26.6308 17.029 26.3459 16.9003 25.8658C16.7717 25.3856 17.0566 24.8921 17.5367 24.7635C18.0168 24.6348 18.5103 24.9198 18.639 25.3999ZM20.8004 25.7525C21.2806 25.6239 21.5655 25.1304 21.4368 24.6502C21.3082 24.1701 20.8147 23.8852 20.3346 24.0138C19.8544 24.1425 19.5695 24.636 19.6982 25.1161C19.8268 25.5962 20.3203 25.8812 20.8004 25.7525Z" fill="black"/>
<path fill-rule="evenodd" clip-rule="evenodd" d="M20.5443 8.73985C21.9611 9.11946 22.8835 10.4387 22.8583 11.8828L32.1711 14.3781C32.8714 13.1149 34.3298 12.4337 35.7465 12.8133C37.4257 13.2632 38.4104 15.0331 37.946 16.7665C37.5847 18.1148 36.4529 19.0439 35.1775 19.1783C36.2148 19.9323 36.7305 21.3028 36.3692 22.6512C35.9047 24.3845 34.167 25.4249 32.4878 24.975C31.2118 24.6331 30.3368 23.529 30.194 22.258L20.6306 19.6955C19.8714 20.7248 18.5616 21.2435 17.2856 20.9016C15.6064 20.4517 14.6217 18.6817 15.0861 16.9484C15.4474 15.6 16.5792 14.671 17.8546 14.5366C16.8173 13.7825 16.3017 12.412 16.6629 11.0637C17.1274 9.33033 18.8652 8.28992 20.5443 8.73985ZM23.4815 16.9153C23.9854 17.0504 24.5033 16.7513 24.6384 16.2474C24.7734 15.7436 24.4743 15.2256 23.9704 15.0906C23.4666 14.9556 22.9486 15.2546 22.8136 15.7585C22.6786 16.2624 22.9776 16.7803 23.4815 16.9153ZM27.4751 17.0074C27.3401 17.5113 26.8222 17.8104 26.3183 17.6753C25.8144 17.5403 25.5154 17.0224 25.6504 16.5185C25.7854 16.0146 26.3034 15.7156 26.8072 15.8506C27.3111 15.9856 27.6102 16.5035 27.4751 17.0074ZM29.1542 18.4354C29.6581 18.5704 30.1761 18.2714 30.3111 17.7675C30.4461 17.2636 30.1471 16.7456 29.6432 16.6106C29.1393 16.4756 28.6213 16.7746 28.4863 17.2785C28.3513 17.7824 28.6503 18.3004 29.1542 18.4354Z" fill="#F16C7C"/>
</svg>
