<svg width="44" height="44" viewBox="0 0 44 44" fill="none" xmlns="http://www.w3.org/2000/svg">
<path fill-rule="evenodd" clip-rule="evenodd" d="M19.1479 9.99403C20.7572 8.20332 23.6368 7.58903 26.4254 8.32434C28.4983 8.87092 29.8902 10.5176 30.2391 12.7182L29.2515 12.8747C28.9587 11.028 27.8247 9.72748 26.1706 9.29133C23.6399 8.62402 21.1922 9.22361 19.8991 10.6543L14.019 17.8342L14.0075 17.8464C13.0466 18.8707 12.4644 20.0527 12.1159 21.3713L10.0354 30.3467L10.0335 30.3539C9.99566 30.4975 10.0438 30.5836 10.0753 30.6192L10.1081 30.6563L10.133 30.6991C10.276 30.945 10.6164 31.1783 11.0486 31.2479C11.4991 31.3142 11.8572 31.2603 12.0477 31.1246L12.0575 31.1176L14.0038 29.8005L15.8599 28.5819L19.2393 26.2912L19.8004 27.119L16.4119 29.4159L14.5557 30.6345L12.6226 31.9429C12.113 32.3026 11.4324 32.3157 10.8996 32.2368L10.8941 32.236C10.2504 32.1334 9.62615 31.7813 9.29263 31.2419C9.08086 30.9793 8.94376 30.5753 9.06447 30.1069L11.1452 21.1307L11.1471 21.1235C11.5282 19.6772 12.1773 18.3402 13.2665 17.1746L19.1403 10.0026L19.1479 9.99403Z" fill="black"/>
<path fill-rule="evenodd" clip-rule="evenodd" d="M19.9928 23.3015L18.0197 23.1934L17.3696 16.712L17.3685 16.6939C17.3412 16.2681 17.4898 15.8703 17.7147 15.5755C17.9399 15.2804 18.3226 14.9886 18.8371 14.9556C19.2634 14.9282 19.6614 15.0775 19.9564 15.3033C20.2474 15.526 20.5339 15.9015 20.5739 16.4043L20.846 19.1171L20.8126 19.2714C20.671 19.9256 20.5256 20.6575 20.3783 21.3987C20.2507 22.0409 20.1218 22.69 19.9928 23.3015ZM19.5777 16.4903C19.5578 16.1781 19.2135 15.9337 18.9019 15.9537C18.5902 15.9737 18.3462 16.3186 18.3662 16.6308L19.0145 23.0942C19.1047 22.667 19.199 22.1997 19.2943 21.722C19.3274 21.5565 19.3605 21.3898 19.3937 21.223C19.4922 20.7279 19.5907 20.2329 19.6858 19.7702C19.7368 19.5222 19.7869 19.2835 19.8354 19.0591L19.5777 16.4903Z" fill="black"/>
<path fill-rule="evenodd" clip-rule="evenodd" d="M13.816 25.6693L13.4026 21.1832L13.4017 21.1693C13.3744 20.7433 13.523 20.3455 13.748 20.0506C13.9732 19.7555 14.356 19.4638 14.8705 19.4308C15.2967 19.4035 15.6948 19.5527 15.9898 19.7785C16.2817 20.002 16.5694 20.3793 16.6078 20.8847L17.0189 25.3453L17.0198 25.3592C17.047 25.7852 16.8984 26.183 16.6734 26.4778C16.4482 26.773 16.0655 27.0647 15.551 27.0977L15.3889 27.1081L15.3817 27.1062C15.3642 27.1065 15.3457 27.1066 15.3264 27.1061C15.2355 27.1041 15.1351 27.0922 15.0282 27.064C14.4262 26.905 13.9045 26.3873 13.8179 25.6846L13.816 25.6693ZM15.5585 27.0913C15.5599 27.0911 15.5596 27.0911 15.5585 27.0913ZM15.6113 20.9656C15.5913 20.6534 15.2469 20.409 14.9352 20.429C14.6234 20.449 14.3794 20.7938 14.3994 21.106L14.8102 25.5629C14.8428 25.8273 15.0438 26.0338 15.2826 26.0969C15.3386 26.1117 15.3825 26.1057 15.4188 26.1008C15.4445 26.0973 15.4665 26.0943 15.4863 26.0995C15.798 26.0795 16.042 25.7347 16.022 25.4225L15.6113 20.9656Z" fill="black"/>
<path fill-rule="evenodd" clip-rule="evenodd" d="M27.6937 8.55697C24.8205 8.80391 22.3159 10.3524 21.403 12.5808L21.3986 12.5914L18.2806 21.324C17.6472 22.7885 17.4857 24.2663 17.6133 25.7565L17.614 25.764L18.6743 34.9177C18.7182 35.3995 18.9832 35.7337 19.2709 35.9096C19.7664 36.3053 20.4727 36.4266 21.1134 36.3063L21.1188 36.3052C21.647 36.2 22.2835 35.9585 22.6423 35.448L24.0223 33.5649L25.3602 31.7919L33.9193 20.0946C35.0679 18.5917 35.2856 16.7824 34.5911 15.1212L34.5852 15.1069L32.7678 11.4193L32.7627 11.41C31.6939 9.45527 29.8294 8.37341 27.6937 8.55697ZM27.5926 11.8863C27.8611 11.9722 28.141 12.1625 28.2823 12.4815L31.3851 19.0248L31.3887 19.0331C31.5111 19.3173 31.5095 19.6363 31.4231 19.9072C31.3367 20.1782 31.144 20.4618 30.8191 20.6022L30.7445 20.6345L30.7385 20.635C30.6768 20.6646 30.5787 20.7041 30.4488 20.7152C29.9873 20.7549 29.4957 20.5211 29.2634 20.0585L29.2584 20.0484L26.1524 13.4983L26.1488 13.49C26.0264 13.2058 26.028 12.8868 26.1144 12.6159C26.2008 12.3449 26.3935 12.0613 26.7184 11.9209C27.0027 11.798 27.3218 11.7997 27.5926 11.8863ZM24.1112 16.3922C24.3796 16.4781 24.6595 16.6684 24.8008 16.9874L27.9037 23.5307L27.9073 23.539C28.0297 23.8232 28.0281 24.1422 27.9417 24.4131C27.8627 24.6608 27.6949 24.919 27.4185 25.0688C27.3171 25.1451 27.2132 25.1767 27.1579 25.1909C27.0762 25.2119 26.9998 25.2184 26.9714 25.2208L26.9673 25.2211C26.5058 25.2608 26.0142 25.0269 25.7819 24.5644L25.777 24.5543L22.6709 18.0042L22.6673 17.9959C22.5449 17.7117 22.5465 17.3927 22.6329 17.1218C22.7194 16.8508 22.9121 16.5672 23.237 16.4268C23.5213 16.3039 23.8404 16.3055 24.1112 16.3922ZM21.6769 22.192C21.9459 22.278 22.2265 22.4689 22.3676 22.7893L24.4719 27.3213C24.5944 27.6055 24.5928 27.9246 24.5063 28.1955C24.4199 28.4666 24.2271 28.7501 23.9021 28.8905L23.8275 28.9227L23.8215 28.9232C23.7598 28.9528 23.6618 28.9923 23.5318 29.0035C23.0703 29.0431 22.5786 28.8094 22.3462 28.3469L22.3428 28.34L20.2328 23.7957C20.1104 23.5115 20.112 23.1925 20.1984 22.9215C20.2849 22.6505 20.4777 22.367 20.8026 22.2266C21.0869 22.1037 21.406 22.1053 21.6769 22.192Z" fill="#F16C7C"/>
</svg>
