<svg width="44" height="44" viewBox="0 0 44 44" fill="none" xmlns="http://www.w3.org/2000/svg">
<path fill-rule="evenodd" clip-rule="evenodd" d="M26.5596 20.7358H31V26.8896H26.5593C25.5707 28.3515 23.8976 29.3125 22 29.3125C20.1024 29.3125 18.4293 28.3515 17.4407 26.8896H13V20.7358H17.4404C18.4289 19.2737 20.1022 18.3125 22 18.3125C23.8978 18.3125 25.5711 19.2737 26.5596 20.7358Z" fill="#F16C7C"/>
<path fill-rule="evenodd" clip-rule="evenodd" d="M20.6667 6.00488C20.4323 6.00488 20.2294 6.16765 20.1786 6.39642L19.5142 9.38588C19.5061 9.41925 19.5013 9.45393 19.5002 9.48955M19.5 9.50697L19.5 11.0049H15C13.6193 11.0049 12.5 12.1242 12.5 13.5049V34.1201C12.5 35.5008 13.6193 36.6201 15 36.6201H29C30.3807 36.6201 31.5 35.5008 31.5 34.1201V13.5049C31.5 12.1242 30.3807 11.0049 29 11.0049H24.5V9.50697C24.5 9.50117 24.4999 9.49536 24.4998 9.48955C24.4987 9.45394 24.4939 9.41926 24.4858 9.38589L23.8214 6.39642C23.7706 6.16765 23.5677 6.00488 23.3333 6.00488H20.6667M23.3767 9.00488L22.9322 7.00488L21.0678 7.00488L20.6233 9.00488H23.3767ZM20.5 10.0049V11.0049L23.5 11.0049V10.0049L20.5 10.0049ZM20 12.0049L24 12.0049H29C29.8284 12.0049 30.5 12.6765 30.5 13.5049V34.1201C30.5 34.9485 29.8284 35.6201 29 35.6201H15C14.1716 35.6201 13.5 34.9485 13.5 34.1201V13.5049C13.5 12.6765 14.1716 12.0049 15 12.0049L20 12.0049Z" fill="black"/>
</svg>
