<svg width="44" height="44" viewBox="0 0 44 44" fill="none" xmlns="http://www.w3.org/2000/svg">
<path fill-rule="evenodd" clip-rule="evenodd" d="M17.0152 10.678C17.004 10.6585 16.9579 10.5288 17.1356 10.2426C17.3006 9.97658 17.6072 9.67634 18.0285 9.43309C18.4499 9.18985 18.8632 9.07444 19.1761 9.06449C19.5128 9.05378 19.6021 9.1585 19.6133 9.17796C19.6134 9.17808 19.6134 9.1782 19.6135 9.17833L19.6132 9.17849C19.6188 9.18813 19.6329 9.22483 19.6241 9.29422C19.6151 9.36487 19.5823 9.46928 19.493 9.61332C19.3279 9.87934 19.0213 10.1796 18.6 10.4228C18.1787 10.6661 17.7653 10.7815 17.4524 10.7914C17.1157 10.8021 17.0264 10.6974 17.0152 10.678ZM16.1494 11.1783C16.1493 11.1782 16.1493 11.1781 16.1492 11.178C15.8646 10.685 16.0305 10.1269 16.2859 9.71532C16.5538 9.28358 16.9933 8.87611 17.5285 8.56707C18.0638 8.25803 18.6364 8.08115 19.1443 8.065C19.6284 8.0496 20.1947 8.18496 20.4793 8.67796C20.4839 8.68583 20.4883 8.69371 20.4926 8.70161L34.4077 32.8033C34.6924 33.2963 34.5265 33.8545 34.2711 34.266C34.0032 34.6977 33.5637 35.1052 33.0284 35.4142C32.4931 35.7233 31.9205 35.9002 31.4126 35.9163C30.9285 35.9317 30.3622 35.7963 30.0776 35.3033L16.1491 11.1785L16.1494 11.1783ZM30.9436 34.8033L17.6514 11.7806C18.1157 11.7354 18.6226 11.5649 19.0999 11.2894C19.5771 11.0138 19.9783 10.66 20.2495 10.2806L33.5417 33.3033C33.5529 33.3228 33.599 33.4525 33.4214 33.7387C33.2563 34.0047 32.9497 34.305 32.5284 34.5482C32.1071 34.7915 31.6938 34.9069 31.3808 34.9168C31.0442 34.9275 30.9549 34.8228 30.9436 34.8033Z" fill="black"/>
<path fill-rule="evenodd" clip-rule="evenodd" d="M10.0152 10.678C10.004 10.6585 9.95794 10.5288 10.1356 10.2426C10.3006 9.97658 10.6072 9.67634 11.0285 9.43309C11.4499 9.18985 11.8632 9.07444 12.1761 9.06449C12.5128 9.05378 12.6021 9.1585 12.6133 9.17796C12.6134 9.17808 12.6134 9.1782 12.6135 9.17833L12.6132 9.17849C12.6188 9.18813 12.6329 9.22483 12.6241 9.29422C12.6151 9.36487 12.5823 9.46928 12.493 9.61332C12.3279 9.87934 12.0213 10.1796 11.6 10.4228C11.1787 10.6661 10.7653 10.7815 10.4524 10.7914C10.1157 10.8021 10.0264 10.6974 10.0152 10.678ZM9.1494 11.1783C9.14933 11.1782 9.14926 11.1781 9.14919 11.178C8.86456 10.685 9.03048 10.1269 9.28586 9.71532C9.55377 9.28358 9.99327 8.87611 10.5285 8.56707C11.0638 8.25803 11.6364 8.08115 12.1443 8.065C12.6284 8.0496 13.1947 8.18496 13.4793 8.67796C13.4839 8.68583 13.4883 8.69371 13.4926 8.70161L27.4077 32.8033C27.6924 33.2963 27.5265 33.8545 27.2711 34.266C27.0032 34.6977 26.5637 35.1052 26.0284 35.4142C25.4931 35.7233 24.9205 35.9002 24.4126 35.9163C23.9285 35.9317 23.3622 35.7963 23.0776 35.3033L9.14912 11.1785L9.1494 11.1783ZM23.9436 34.8033L10.6514 11.7806C11.1157 11.7354 11.6226 11.5649 12.0999 11.2894C12.5771 11.0138 12.9783 10.66 13.2495 10.2806L26.5417 33.3033C26.5529 33.3228 26.599 33.4525 26.4214 33.7387C26.2563 34.0047 25.9497 34.305 25.5284 34.5482C25.1071 34.7915 24.6938 34.9069 24.3808 34.9168C24.0442 34.9275 23.9549 34.8228 23.9436 34.8033Z" fill="black"/>
<path fill-rule="evenodd" clip-rule="evenodd" d="M29.9758 10.9285C29.68 11.4409 28.6646 11.4086 27.7081 10.8563C26.7515 10.3041 26.2159 9.44092 26.5117 8.92847L12.5832 33.0533C12.2874 33.5658 12.823 34.4289 13.7796 34.9812C14.7362 35.5335 15.7515 35.5658 16.0473 35.0533L29.9758 10.9285Z" fill="#F16C7C"/>
<path fill-rule="evenodd" clip-rule="evenodd" d="M26.0781 8.67847L12.1496 32.8033C11.865 33.2963 12.0309 33.8544 12.2863 34.266C12.5542 34.6977 12.9937 35.1052 13.529 35.4142C14.0643 35.7233 14.6369 35.9001 15.1447 35.9163C15.6288 35.9317 16.1951 35.7963 16.4798 35.3033L30.4083 11.1785L29.5422 10.6785C29.531 10.6979 29.4417 10.8026 29.105 10.7919C28.7921 10.782 28.3788 10.6666 27.9575 10.4233C27.5362 10.1801 27.2296 9.87985 27.0645 9.61383C26.8869 9.32761 26.9329 9.19792 26.9442 9.17847L26.0781 8.67847ZM26.3079 10.2805L13.0157 33.3033C13.0044 33.3228 12.9584 33.4525 13.136 33.7387C13.3011 34.0047 13.6077 34.3049 14.029 34.5482C14.4503 34.7914 14.8636 34.9068 15.1765 34.9168C15.5132 34.9275 15.6025 34.8228 15.6137 34.8033L28.9059 11.7805C28.4417 11.7354 27.9347 11.5649 27.4575 11.2894C26.9802 11.0138 26.5791 10.66 26.3079 10.2805Z" fill="#F16C7C"/>
<path d="M29.9753 10.9279C29.6794 11.4403 28.6641 11.408 27.7075 10.8558C26.7509 10.3035 26.2153 9.44033 26.5112 8.92788C26.807 8.41543 27.8223 8.44772 28.7789 9C29.7355 9.55228 30.2711 10.4154 29.9753 10.9279Z" fill="#FFCCD7"/>
<path fill-rule="evenodd" clip-rule="evenodd" d="M27.3808 9.06444C27.0441 9.05373 26.9548 9.15845 26.9436 9.17791C26.9324 9.19736 26.8863 9.32705 27.0639 9.61327C27.229 9.87929 27.5356 10.1795 27.9569 10.4228C28.3782 10.666 28.7915 10.7814 29.1045 10.7914C29.4412 10.8021 29.5304 10.6974 29.5417 10.6779C29.5529 10.6585 29.599 10.5288 29.4213 10.2425C29.2563 9.97652 28.9497 9.67629 28.5283 9.43304C28.107 9.1898 27.6937 9.07439 27.3808 9.06444ZM27.4126 8.06494C27.9204 8.0811 28.4931 8.25798 29.0283 8.56702C29.5636 8.87606 30.0031 9.28353 30.271 9.71527C30.5264 10.1268 30.6923 10.6849 30.4077 11.1779C30.1231 11.6709 29.5568 11.8063 29.0727 11.7909C28.5648 11.7747 27.9922 11.5978 27.4569 11.2888C26.9217 10.9798 26.4821 10.5723 26.2142 10.1405C25.9589 9.72902 25.7929 9.17091 26.0776 8.67791C26.3622 8.18491 26.9285 8.04955 27.4126 8.06494Z" fill="#FFCCD7"/>
</svg>
