<svg width="44" height="44" viewBox="0 0 44 44" fill="none" xmlns="http://www.w3.org/2000/svg">
<path fill-rule="evenodd" clip-rule="evenodd" d="M32.8281 19.7773C31.2487 19.2293 28.0304 18.5002 22.0961 18.5002V17.5002C28.107 17.5002 31.4424 18.2381 33.1559 18.8325C34.3315 19.2404 35.045 20.2545 35.3554 21.3565C35.7101 22.6158 36.1974 24.4521 36.4939 26.021C36.7106 27.1675 36.9492 28.4631 37.151 29.5682C37.4768 31.3527 36.8099 33.2594 34.929 33.8893C32.735 34.624 28.822 35.4065 22.0961 35.4065C15.3122 35.4065 11.4097 34.6104 9.24446 33.8697C7.41514 33.2439 6.76397 31.3885 7.07419 29.6488C7.2754 28.5204 7.52274 27.1825 7.76279 26.0133C8.08122 24.4623 8.56809 22.6195 8.9178 21.3551C9.22115 20.2584 9.92252 19.238 11.0954 18.8278C11.8757 18.5549 12.9942 18.2532 14.554 18.0064L14.7103 18.9941C13.2013 19.2328 12.142 19.5212 11.4255 19.7717C10.6543 20.0414 10.1273 20.7334 9.88161 21.6217C9.53323 22.8813 9.05376 24.6976 8.74236 26.2144C8.50486 27.3712 8.25927 28.6993 8.05866 29.8243C7.80426 31.251 8.35421 32.5083 9.56813 32.9235C11.5981 33.618 15.3837 34.4065 22.0961 34.4065C28.7505 34.4065 32.5495 33.6315 34.6114 32.941C35.8688 32.52 36.4359 31.2191 36.1672 29.7478C35.9656 28.6436 35.7274 27.3503 35.5113 26.2067C35.2232 24.6823 34.7457 22.8802 34.3929 21.6277C34.1425 20.7387 33.6067 20.0474 32.8281 19.7773ZM22.1298 27.9779C22.676 27.9779 23.1187 27.5351 23.1187 26.989C23.1187 26.4428 22.676 26 22.1298 26C21.5836 26 21.1408 26.4428 21.1408 26.989C21.1408 27.5351 21.5836 27.9779 22.1298 27.9779ZM19.3337 28.9668C19.8799 28.9668 20.3226 28.524 20.3226 27.9778C20.3226 27.4316 19.8799 26.9889 19.3337 26.9889C18.7875 26.9889 18.3447 27.4316 18.3447 27.9778C18.3447 28.524 18.7875 28.9668 19.3337 28.9668ZM25.9157 27.9778C25.9157 28.524 25.473 28.9668 24.9268 28.9668C24.3806 28.9668 23.9378 28.524 23.9378 27.9778C23.9378 27.4316 24.3806 26.9889 24.9268 26.9889C25.473 26.9889 25.9157 27.4316 25.9157 27.9778ZM22.1234 28.4257C21.3173 28.4257 20.4826 28.8199 19.9091 29.3894C19.3347 29.9598 18.9353 30.8046 19.2347 31.7028C19.416 32.2469 19.9238 32.568 20.4116 32.7498C20.92 32.9394 21.5311 33.0269 22.1234 33.0269C22.7156 33.0269 23.3267 32.9394 23.8352 32.7498C24.3229 32.568 24.8308 32.2469 25.0121 31.7028C25.3115 30.8046 24.912 29.9598 24.3377 29.3894C23.7642 28.8199 22.9295 28.4257 22.1234 28.4257ZM20.1834 31.3866C20.0463 30.9754 20.1993 30.5106 20.6138 30.0989C21.0293 29.6863 21.6199 29.4257 22.1234 29.4257C22.6268 29.4257 23.2175 29.6863 23.633 30.0989C24.0475 30.5106 24.2005 30.9754 24.0634 31.3866C24.0265 31.4973 23.8762 31.6673 23.4858 31.8128C23.1162 31.9506 22.6292 32.0269 22.1234 32.0269C21.6176 32.0269 21.1305 31.9506 20.7609 31.8128C20.3705 31.6673 20.2203 31.4973 20.1834 31.3866ZM12.6269 22.1314C12.6268 22.1314 12.627 22.1305 12.6279 22.1288C12.6273 22.1305 12.6269 22.1314 12.6269 22.1314ZM12.6832 22.0612C12.6636 22.0803 12.6506 22.0954 12.6421 22.1067C12.6506 22.118 12.6636 22.1331 12.6832 22.1522C12.761 22.2283 12.9026 22.3256 13.1301 22.4332C13.5825 22.6471 14.2691 22.8529 15.1575 23.0306C16.9261 23.3843 19.3917 23.6067 22.1305 23.6067C24.8693 23.6067 27.3349 23.3843 29.1035 23.0306C29.992 22.8529 30.6785 22.6471 31.1309 22.4332C31.3584 22.3256 31.5 22.2283 31.5779 22.1522C31.5974 22.1331 31.6104 22.118 31.6189 22.1067C31.6104 22.0954 31.5974 22.0803 31.5779 22.0612C31.5 21.9851 31.3584 21.8878 31.1309 21.7802C30.6785 21.5663 29.992 21.3605 29.1035 21.1828C27.3349 20.829 24.8693 20.6067 22.1305 20.6067C19.3917 20.6067 16.9261 20.829 15.1575 21.1828C14.2691 21.3605 13.5825 21.5663 13.1301 21.7802C12.9026 21.8878 12.761 21.9851 12.6832 22.0612ZM31.6341 22.1314C31.6341 22.1314 31.6337 22.1305 31.6332 22.1288C31.634 22.1305 31.6342 22.1314 31.6341 22.1314ZM31.6332 22.0846C31.6337 22.0829 31.6341 22.082 31.6341 22.082C31.6342 22.082 31.634 22.0829 31.6332 22.0846ZM12.6279 22.0846C12.627 22.0829 12.6268 22.082 12.6269 22.082C12.6269 22.082 12.6273 22.0829 12.6279 22.0846ZM22.1305 19.6067C19.3464 19.6067 16.812 19.8321 14.9614 20.2022C14.0402 20.3864 13.2623 20.6116 12.7026 20.8762C12.4241 21.0079 12.1728 21.1617 11.9842 21.346C11.7948 21.5312 11.6305 21.7868 11.6305 22.1067C11.6305 22.4266 11.7948 22.6822 11.9842 22.8673C12.1728 23.0516 12.4241 23.2055 12.7026 23.3372C13.2623 23.6018 14.0402 23.827 14.9614 24.0112C16.812 24.3813 19.3464 24.6067 22.1305 24.6067C24.9146 24.6067 27.449 24.3813 29.2996 24.0112C30.2208 23.827 30.9987 23.6018 31.5584 23.3372C31.837 23.2055 32.0882 23.0516 32.2768 22.8673C32.4662 22.6822 32.6305 22.4266 32.6305 22.1067C32.6305 21.7868 32.4662 21.5312 32.2768 21.346C32.0882 21.1617 31.837 21.0079 31.5584 20.8762C30.9987 20.6116 30.2208 20.3864 29.2996 20.2022C27.449 19.8321 24.9146 19.6067 22.1305 19.6067Z" fill="black"/>
<path d="M33.3862 8.52301C32.768 7.95756 31.8086 8.00027 31.2431 8.61839C30.836 9.06344 30.7441 9.68545 30.9553 10.2099L28.4276 11.6963L30.1541 14.3035L32.5054 12.8568C33.1235 13.4222 34.083 13.3795 34.6485 12.7614C35.2139 12.1433 35.1712 11.1838 34.5531 10.6184C34.3227 10.4076 34.0449 10.2814 33.7578 10.2379C34.0036 9.662 33.8744 8.96961 33.3862 8.52301Z" fill="#FFCCD7"/>
<path fill-rule="evenodd" clip-rule="evenodd" d="M13.0124 11.8246C14.0289 10.4789 16.75 7.94528 20.2158 8.79282C22.1548 9.26697 23.1681 9.9338 24.0122 10.4892C24.7733 10.9901 25.3967 11.4003 26.4371 11.4972C27.1027 11.5591 27.6259 11.3816 28.0881 11.2248C28.7302 11.007 29.2547 10.829 29.8799 11.3884C30.7278 12.147 31.4447 13.1648 31.0557 14.0596C30.7177 14.8373 25.7409 21.55 21.3254 22.7743C16.9099 23.9986 9.86849 16.9302 13.0124 11.8246ZM16.1597 18.1246C16.9664 19.088 18.2713 19.3241 19.0742 18.6518C19.877 17.9795 19.8739 16.6535 19.0672 15.69C18.2604 14.7266 16.9556 14.4905 16.1527 15.1628C15.3498 15.8351 15.353 17.1611 16.1597 18.1246Z" fill="#F16C7C"/>
<path fill-rule="evenodd" clip-rule="evenodd" d="M13.8345 20.0713C16.2547 22.9617 19.9089 23.8878 21.9964 22.1399C24.0838 20.392 23.8141 16.6319 21.3939 13.7415C18.9737 10.8512 15.3195 9.92504 13.232 11.673C11.1445 13.4209 11.4142 17.181 13.8345 20.0713ZM16.1597 18.1246C16.9664 19.088 18.2713 19.3241 19.0742 18.6518C19.877 17.9795 19.8739 16.6535 19.0672 15.69C18.2604 14.7266 16.9556 14.4905 16.1527 15.1628C15.3498 15.8351 15.353 17.1611 16.1597 18.1246Z" fill="#FFCCD7"/>
</svg>
