<svg width="44" height="44" viewBox="0 0 44 44" fill="none" xmlns="http://www.w3.org/2000/svg">
<path fill-rule="evenodd" clip-rule="evenodd" d="M10.2247 30.6525L8.37411 31.131C7.79314 31.2812 7.47437 31.9058 7.69352 32.4644L8.66715 34.9462C8.8824 35.4948 9.52306 35.7393 10.0491 35.4735L11.9971 34.4891C11.8465 34.3748 11.7028 34.2509 11.5672 34.1181C10.9494 33.5132 10.4989 32.7239 10.3113 31.8133C10.2398 31.4664 10.2103 31.1207 10.2194 30.7814C10.2205 30.7383 10.2223 30.6954 10.2247 30.6525ZM35.0872 12.6676L36.3264 11.0722C36.7095 10.579 36.5518 9.85916 35.9976 9.57131L33.5111 8.27987C32.9903 8.00936 32.3495 8.24342 32.1257 8.78594L31.2759 10.846C31.3399 10.8433 31.4042 10.842 31.4687 10.842C31.7233 10.8423 31.9813 10.8643 32.2407 10.9095C33.2983 11.0937 34.205 11.6331 34.8594 12.3839C34.9391 12.4754 35.0151 12.5701 35.0872 12.6676Z" fill="#F16C7C"/>
<path fill-rule="evenodd" clip-rule="evenodd" d="M10.54 32.5783C10.7758 33.169 11.1293 33.6897 11.5668 34.118C12.6005 35.1301 14.1027 35.6264 15.6262 35.3126C29.4894 32.4567 34.9323 21.6806 35.9015 16.1146C36.1437 14.7238 35.7194 13.3711 34.8589 12.3838C34.4009 11.8583 33.8193 11.4363 33.1488 11.1672C33.4502 11.9174 33.5532 12.758 33.4043 13.613C32.4351 19.1789 26.9921 29.955 13.129 32.8109C12.2277 32.9966 11.3338 32.8987 10.54 32.5783Z" fill="#F897A1"/>
<path fill-rule="evenodd" clip-rule="evenodd" d="M26.5428 14.485C26.9664 12.0522 29.0813 10.3392 31.4693 10.342C31.7523 10.3424 32.0388 10.3668 32.3264 10.4169C33.5011 10.6215 34.5092 11.2213 35.2362 12.0554C36.1915 13.1514 36.6637 14.655 36.3945 16.2005C35.3989 21.9183 29.8377 32.8956 15.7275 35.8024C14.0343 36.1513 12.3649 35.5989 11.2174 34.4754C10.5306 33.803 10.0298 32.9253 9.82151 31.9141C9.74226 31.5295 9.70947 31.1454 9.71954 30.768C9.78008 28.4988 11.3899 26.486 13.7098 26.0081C15.262 25.6884 16.6405 25.2246 17.8621 24.6627C19.4788 23.9191 20.824 23.0022 21.9351 22.0157C23.312 20.7929 24.3311 19.4614 25.0603 18.2177C25.9413 16.715 26.3916 15.3534 26.5428 14.485ZM31.4681 11.342C29.5584 11.3398 27.8667 12.7112 27.528 14.6566C27.3714 15.5557 26.9542 16.8366 26.1941 18.2421L28.4267 19.2633C28.6778 19.3782 28.7883 19.6749 28.6734 19.926C28.5586 20.1771 28.2619 20.2876 28.0108 20.1727L25.6887 19.1106C25.0049 20.2058 24.1114 21.3484 22.9688 22.4251L24.7169 24.3852C24.9007 24.5913 24.8826 24.9074 24.6766 25.0912C24.4705 25.275 24.1544 25.2569 23.9706 25.0508L22.2211 23.0892C21.2255 23.9223 20.067 24.6978 18.7264 25.3586L19.8003 27.7642C19.9129 28.0164 19.7997 28.312 19.5476 28.4246C19.2954 28.5372 18.9997 28.424 18.8872 28.1718L17.8178 25.7763C16.6445 26.2779 15.3459 26.6921 13.9116 26.9876C12.0568 27.3697 10.7676 28.9794 10.7192 30.7947C10.7111 31.096 10.7373 31.4034 10.8009 31.7124C10.9678 32.5225 11.368 33.2233 11.917 33.7609C12.8369 34.6616 14.172 35.1019 15.5258 34.823C29.1419 32.018 34.4666 21.4431 35.4094 16.029C35.6246 14.7929 35.2481 13.591 34.4824 12.7124C33.9006 12.045 33.0955 11.5659 32.1549 11.4021C31.9238 11.3618 31.6942 11.3423 31.4681 11.342Z" fill="black"/>
</svg>
