<svg width="44" height="44" viewBox="0 0 44 44" fill="none" xmlns="http://www.w3.org/2000/svg">
<path fill-rule="evenodd" clip-rule="evenodd" d="M12.7539 10.7289C13.0781 10.8514 13.5494 11.0109 14.1633 11.1712C15.4686 11.512 17.4197 11.8567 19.9737 11.8567C22.5277 11.8567 24.4788 11.512 25.7841 11.1712C26.3898 11.0131 26.8567 10.8557 27.1804 10.7338L27.1653 10.7238C26.8844 10.54 26.431 10.3383 25.7876 10.1524C24.5069 9.78222 22.5626 9.5 19.9737 9.5C17.3089 9.5 15.3659 9.78252 14.1058 10.1518C13.4729 10.3373 13.0354 10.538 12.7679 10.7193L12.7539 10.7289ZM27.4479 11.7012V13.6878C27.4479 13.8803 27.3436 14.0213 27.2059 14.0735C26.2005 14.4551 23.7436 15.206 19.9737 15.206C16.2038 15.206 13.7469 14.4551 12.7415 14.0735C12.6038 14.0213 12.4995 13.8803 12.4995 13.6878V11.7012C12.8476 11.8292 13.3191 11.9843 13.9107 12.1388C15.2928 12.4997 17.3288 12.8567 19.9737 12.8567C22.6186 12.8567 24.6546 12.4997 26.0367 12.1388C26.6283 11.9843 27.0998 11.8292 27.4479 11.7012ZM13.8245 9.1922C15.2039 8.78795 17.2479 8.5 19.9737 8.5C22.6265 8.5 24.6693 8.78825 26.0653 9.19168C26.7602 9.39253 27.3175 9.62835 27.7128 9.887C27.9104 10.0163 28.085 10.1626 28.2145 10.3287C28.3443 10.4951 28.4479 10.7071 28.4479 10.9533V13.6878C28.4479 14.2496 28.1282 14.7931 27.5607 15.0085C27.4639 15.0452 27.3559 15.0847 27.2367 15.1261C28.5373 15.6839 29.5 16.9372 29.5 18.4684V19.8394V27.887V31.8106C29.5 32.7648 28.9513 33.6631 28.0175 34.0109C26.4477 34.5954 23.462 35.5001 20 35.5001C16.538 35.5001 13.5523 34.5954 11.9825 34.0109C11.0487 33.6631 10.5 32.7648 10.5 31.8106V27.887V19.8394V18.4684C10.5 16.9464 11.4512 15.699 12.7399 15.1362C12.6091 15.0911 12.4913 15.0482 12.3867 15.0085C11.8192 14.7931 11.4995 14.2496 11.4995 13.6878V10.9533C11.4995 10.4862 11.852 10.132 12.207 9.89148C12.5923 9.63035 13.1377 9.39351 13.8245 9.1922ZM28.5 19.4853V18.4684C28.5 16.8629 26.9829 15.6129 25.3397 15.8398C23.7818 16.055 21.8939 16.2398 20 16.2398C18.1061 16.2398 16.2182 16.055 14.6603 15.8398C13.0171 15.6129 11.5 16.8629 11.5 18.4684V19.4853C11.5973 19.5181 11.7155 19.5569 11.8533 19.6003C12.2961 19.7397 12.9402 19.9266 13.739 20.1136C15.3382 20.4882 17.5487 20.8616 20 20.8616C22.4513 20.8616 24.6618 20.4882 26.261 20.1136C27.0598 19.9266 27.7039 19.7397 28.1467 19.6003C28.2845 19.5569 28.4027 19.5181 28.5 19.4853ZM11.5 20.5374V27.5649C11.6035 27.61 11.7343 27.6654 11.8904 27.7284C12.3314 27.9066 12.973 28.1453 13.7688 28.3843C15.3626 28.863 17.5626 29.3394 20 29.3394C22.4374 29.3394 24.6374 28.863 26.2312 28.3843C27.027 28.1453 27.6686 27.9066 28.1096 27.7284C28.2657 27.6654 28.3965 27.61 28.5 27.5649V20.5374L28.4471 20.5541C27.9836 20.7001 27.3152 20.8938 26.489 21.0873C24.8382 21.4739 22.5487 21.8616 20 21.8616C17.4513 21.8616 15.1618 21.4739 13.511 21.0873C12.6848 20.8938 12.0164 20.7001 11.5529 20.5541L11.5 20.5374ZM28.5 28.6492L28.4841 28.6556C28.0189 28.8436 27.348 29.093 26.5188 29.342C24.8626 29.8395 22.5626 30.3394 20 30.3394C17.4374 30.3394 15.1374 29.8395 13.4812 29.342C12.652 29.093 11.9811 28.8436 11.5159 28.6556L11.5 28.6492V31.8106C11.5 32.3902 11.8279 32.8862 12.3315 33.0737C13.8399 33.6354 16.701 34.5001 20 34.5001C23.299 34.5001 26.1601 33.6354 27.6685 33.0737C28.1721 32.8862 28.5 32.3902 28.5 31.8106V28.6492ZM20.7832 23.6229C20.7832 24.0557 20.4323 24.4066 19.9995 24.4066C19.5666 24.4066 19.2157 24.0557 19.2157 23.6229C19.2157 23.19 19.5666 22.8391 19.9995 22.8391C20.4323 22.8391 20.7832 23.19 20.7832 23.6229ZM18.5675 24.4065C18.5675 24.8394 18.2166 25.1903 17.7837 25.1903C17.3509 25.1903 17 24.8394 17 24.4065C17 23.9737 17.3509 23.6228 17.7837 23.6228C18.2166 23.6228 18.5675 23.9737 18.5675 24.4065ZM22.2164 25.1903C22.6492 25.1903 23.0001 24.8394 23.0001 24.4065C23.0001 23.9737 22.6492 23.6228 22.2164 23.6228C21.7835 23.6228 21.4326 23.9737 21.4326 24.4065C21.4326 24.8394 21.7835 25.1903 22.2164 25.1903ZM18.1665 25.4515C18.6374 24.9839 19.3242 24.6577 19.9944 24.6577C20.6647 24.6577 21.3515 24.9839 21.8224 25.4515C22.2941 25.9201 22.6363 26.629 22.3822 27.3914C22.2235 27.8675 21.7839 28.1376 21.3873 28.2855C20.9699 28.4411 20.4728 28.5116 19.9944 28.5116C19.5161 28.5116 19.0189 28.4411 18.6016 28.2855C18.2049 28.1376 17.7654 27.8675 17.6067 27.3913C17.3526 26.629 17.6947 25.9201 18.1665 25.4515ZM18.8712 26.1611C18.5593 26.4709 18.4636 26.7998 18.5554 27.0752C18.5696 27.1179 18.6516 27.2369 18.9509 27.3485C19.2294 27.4524 19.6025 27.5116 19.9944 27.5116C20.3863 27.5116 20.7594 27.4524 21.0379 27.3485C21.3372 27.2369 21.4192 27.1179 21.4335 27.0752C21.5253 26.7998 21.4296 26.4709 21.1177 26.1611C20.8048 25.8504 20.362 25.6577 19.9944 25.6577C19.6269 25.6577 19.1841 25.8504 18.8712 26.1611Z" fill="black"/>
<path d="M27.0327 27.6055C27.0327 27.0532 27.4804 26.6055 28.0327 26.6055H31.0166C31.5689 26.6055 32.0166 27.0532 32.0166 27.6055V30.6055C32.0166 31.1578 31.5689 31.6055 31.0166 31.6055H28.0327C27.4804 31.6055 27.0327 31.1578 27.0327 30.6055V27.6055Z" fill="#FFCCD7"/>
<path d="M20.3848 32.6055C20.3848 32.0532 20.8325 31.6055 21.3848 31.6055H24.3686C24.9209 31.6055 25.3686 32.0532 25.3686 32.6055V35.6055C25.3686 36.1578 24.9209 36.6055 24.3686 36.6055H21.3848C20.8325 36.6055 20.3848 36.1578 20.3848 35.6055V32.6055Z" fill="#F16C7C"/>
<path d="M25.3691 32.6055C25.3691 32.0532 25.8169 31.6055 26.3691 31.6055H29.353C29.9053 31.6055 30.353 32.0532 30.353 32.6055V35.6055C30.353 36.1578 29.9053 36.6055 29.353 36.6055H26.3691C25.8169 36.6055 25.3691 36.1578 25.3691 35.6055V32.6055Z" fill="#F897A1"/>
<path d="M32.797 30.2424C33.1869 29.8513 33.819 29.8513 34.2089 30.2424L36.3211 32.3615C36.711 32.7526 36.711 33.3868 36.3211 33.778L34.2089 35.897C33.819 36.2882 33.1869 36.2882 32.797 35.897L30.6848 33.778C30.2949 33.3868 30.2949 32.7526 30.6848 32.3615L32.797 30.2424Z" fill="#F16C7C"/>
</svg>
