<svg width="44" height="44" viewBox="0 0 44 44" fill="none" xmlns="http://www.w3.org/2000/svg">
<path d="M22.2188 20.418C20.5312 19.043 19.1562 16.6055 19.1562 15.668L21.0938 14.9805C21.2292 15.5221 21.75 16.8805 22.75 17.9805C24 19.3555 26.125 20.1055 27.5938 21.6055C28.7688 22.8055 29.1667 24.8763 29.2188 25.7617V33.6992C29.5312 33.7513 30.5063 33.7367 31.9062 33.2617C33.3062 32.7867 34.5938 31.793 35.0625 31.3555C34.875 32.1992 34.2625 34.1117 33.3125 35.0117C32.3625 35.9117 30.1875 36.0534 29.2188 36.0117C27.875 36.0534 24.6625 36.1117 20.6875 36.0117C24.6875 33.6992 25.75 30.918 25.75 27.8555C25.75 24.793 23.9062 21.793 22.2188 20.418Z" fill="#F897A1"/>
<path d="M18.25 15.124C19.8438 14.499 20.0326 12.0104 19.4688 10.5303C18.9049 9.05014 17.5026 8.44889 16.7971 8.21412C19.0004 7.79194 19.9375 8.44921 20.7812 9.76171C21.4563 10.8117 21.3438 12.9678 21.1562 14.1051C20.7812 14.6553 19.4688 15.6553 18.25 15.124Z" fill="#F897A1"/>
<path fill-rule="evenodd" clip-rule="evenodd" d="M14.6696 7.71865C14.7619 7.63393 14.8826 7.58691 15.0078 7.58691H18.2893C19.3984 7.58691 20.2586 8.17942 20.824 8.89061C21.381 9.59134 21.7025 10.468 21.7025 11.1663V14.2499C21.7025 14.2943 21.7021 14.3399 21.7017 14.3868C21.6968 14.9318 21.6904 15.6497 22.3039 16.6928C22.832 17.5904 23.5879 18.1686 24.4987 18.748C24.6892 18.8691 24.8882 18.9912 25.0929 19.1168C25.8469 19.5793 26.6789 20.0896 27.4541 20.781C29.3185 22.4439 29.6602 24.8682 29.7468 25.9703C29.7478 25.9833 29.7483 25.9964 29.7483 26.0094V33.3284C30.6742 33.3663 32.6406 32.923 34.8023 30.4548C34.9479 30.2884 35.1856 30.2375 35.3866 30.3296C35.5877 30.4217 35.7043 30.635 35.6735 30.8539L35.6706 30.8745C35.4921 32.1423 35.2857 33.6079 34.3995 34.7331C33.4765 35.9051 31.9087 36.6128 29.2491 36.6129C26.215 36.6176 21.3543 36.6233 17.9654 36.6232C16.845 36.6231 15.8851 36.6224 15.2051 36.6208C14.8653 36.62 14.5947 36.6189 14.4088 36.6176C14.3161 36.617 14.243 36.6162 14.1926 36.6154C14.1679 36.615 14.1459 36.6146 14.1289 36.614C14.1214 36.6137 14.1093 36.6133 14.0967 36.6124C14.0921 36.612 14.0762 36.6109 14.057 36.6081C14.0507 36.6072 14.0223 36.6032 13.9875 36.593C13.9739 36.589 13.9275 36.5753 13.8744 36.5441L13.8734 36.5435C13.8526 36.5315 13.6277 36.4019 13.6277 36.1129C13.6277 34.949 13.9269 34.1275 14.4283 33.5947C14.7827 33.218 15.2064 33.0195 15.616 32.9352V27.3631C14.8025 26.8483 14.1485 25.9637 13.6914 25.0759C13.1821 24.0868 12.8627 22.9872 12.8627 22.1807V14.7499H10.8828C9.95104 14.7499 9.30852 14.3209 8.9063 13.7862C8.51907 13.2715 8.3569 12.6667 8.32208 12.2539C8.3209 12.24 8.32031 12.2259 8.32031 12.2119V10.2967C8.32031 10.0206 8.54417 9.79674 8.82031 9.79674H12.4068L14.6696 7.71865ZM29.7483 35.6036C31.9026 35.5209 32.9966 34.8982 33.6139 34.1144C34.025 33.5924 34.2584 32.9635 34.4192 32.262C32.5667 33.9064 30.8451 34.3641 29.7483 34.3299V35.6036ZM28.7483 35.6137V26.0293C28.663 24.9676 28.3364 22.9079 26.7885 21.5273C26.0865 20.9013 25.3537 20.4512 24.6106 19.9948C24.3951 19.8624 24.1787 19.7296 23.962 19.5917C23.0164 18.9902 22.0938 18.3078 21.442 17.1998C21.1031 16.6236 20.9182 16.1158 20.8179 15.6775C20.4762 15.9401 20.0254 16.1285 19.4454 16.1285C18.0073 16.1285 17.285 14.9647 17.0986 14.4089C17.0814 14.3576 17.0726 14.3039 17.0726 14.2499V11.0044C17.0726 10.7283 17.2965 10.5044 17.5726 10.5044C17.8488 10.5044 18.0726 10.7283 18.0726 11.0044V14.1603C18.2256 14.5336 18.6766 15.1285 19.4454 15.1285C20.2055 15.1285 20.5906 14.5414 20.7025 14.1815V11.1663C20.7025 10.7316 20.4829 10.0686 20.0412 9.51289C19.6077 8.96763 19.0114 8.58691 18.2893 8.58691H15.2026L12.9398 10.665C12.8475 10.7497 12.7268 10.7967 12.6016 10.7967H9.32031V12.1893C9.3465 12.4562 9.45986 12.8586 9.70542 13.185C9.94201 13.4995 10.3021 13.7499 10.8828 13.7499H13.3627C13.6389 13.7499 13.8627 13.9737 13.8627 14.2499V22.1807C13.8627 22.7753 14.1154 23.7149 14.5805 24.6182C15.0475 25.5251 15.6741 26.2891 16.3417 26.6268C16.51 26.7119 16.616 26.8844 16.616 27.0729V33.3848C16.616 33.6609 16.3922 33.8848 16.116 33.8848C15.7811 33.8848 15.4286 33.9909 15.1565 34.28C14.9323 34.5183 14.7198 34.9268 14.6509 35.619C14.8056 35.6197 14.9923 35.6203 15.2075 35.6208C15.8046 35.6222 16.6185 35.6229 17.5682 35.6231C17.8151 34.7851 18.3394 34.1839 18.9454 33.7672V27.0729C18.9454 26.7968 19.1692 26.5729 19.4454 26.5729C19.7215 26.5729 19.9454 26.7968 19.9454 27.0729V33.2516C20.4415 33.0644 20.9392 32.9611 21.3655 32.9148C21.368 32.3621 21.4051 31.6402 21.5062 30.8767C21.6399 29.8658 21.8909 28.7409 22.3489 27.8348C23.3074 25.9385 25.0553 25.6354 25.8701 25.7451C26.1438 25.7819 26.3358 26.0337 26.2989 26.3073C26.2621 26.581 26.0104 26.773 25.7367 26.7362C25.248 26.6704 23.9675 26.8494 23.2414 28.2859C22.857 29.0462 22.6251 30.0432 22.4975 31.0078C22.3707 31.9663 22.3519 32.8521 22.3726 33.3646C22.378 33.5001 22.3282 33.632 22.2346 33.7301C22.141 33.8281 22.0115 33.884 21.8759 33.8848C21.3205 33.888 20.4339 34.0382 19.6995 34.4716C19.2428 34.7413 18.8565 35.1118 18.631 35.6231C21.7767 35.6226 25.906 35.6179 28.7483 35.6137Z" fill="black"/>
</svg>
